<?xml version="1.0" encoding="UTF-8" standalone="no"?>
<!-- Created with Inkscape (http://www.inkscape.org/) -->

<svg
   xmlns:dc="http://purl.org/dc/elements/1.1/"
   xmlns:cc="http://creativecommons.org/ns#"
   xmlns:rdf="http://www.w3.org/1999/02/22-rdf-syntax-ns#"
   xmlns:svg="http://www.w3.org/2000/svg"
   xmlns="http://www.w3.org/2000/svg"
   xmlns:sodipodi="http://sodipodi.sourceforge.net/DTD/sodipodi-0.dtd"
   xmlns:inkscape="http://www.inkscape.org/namespaces/inkscape"
   width="226.20433mm"
   height="71.580879mm"
   viewBox="0 0 801.51141 253.63304"
   id="svg2"
   version="1.1"
   inkscape:version="0.91 r13725"
   sodipodi:docname="logo-inline.svg">
  <defs
     id="defs4" />
  <sodipodi:namedview
     id="base"
     pagecolor="#ffffff"
     bordercolor="#666666"
     borderopacity="1.0"
     inkscape:pageopacity="0.0"
     inkscape:pageshadow="2"
     inkscape:zoom="0.7"
     inkscape:cx="178.30143"
     inkscape:cy="-155.07283"
     inkscape:document-units="px"
     inkscape:current-layer="layer1"
     showgrid="false"
     inkscape:window-width="1920"
     inkscape:window-height="1057"
     inkscape:window-x="-8"
     inkscape:window-y="-8"
     inkscape:window-maximized="1"
     fit-margin-top="0"
     fit-margin-left="0"
     fit-margin-right="0"
     fit-margin-bottom="0" />
  <metadata
     id="metadata7">
    <rdf:RDF>
      <cc:Work
         rdf:about="">
        <dc:format>image/svg+xml</dc:format>
        <dc:type
           rdf:resource="http://purl.org/dc/dcmitype/StillImage" />
        <dc:title></dc:title>
      </cc:Work>
    </rdf:RDF>
  </metadata>
  <g
     inkscape:label="Layer 1"
     inkscape:groupmode="layer"
     id="layer1"
     transform="translate(8.5387154,-471.67346)">
    <g
       id="g3347"
       transform="translate(22.857143,71.428576)">
      <path
         style="fill:#f9ab44"
         d="m 257.00587,602.30143 c -8.01241,-3.63954 -11.76482,-10.78042 -11.88662,-22.62034 -0.10983,-10.67668 -0.1564,-10.62953 10.16164,-10.28917 l 8.76635,0.28917 0.5,6.83151 c 0.62798,8.58008 1.87035,9.66849 11.03614,9.66849 8.9708,0 10.04698,-1.24196 11.05595,-12.75903 0.42117,-4.80753 0.79775,-13.32081 0.83684,-18.91839 0.0846,-12.11208 1.57538,-10.36956 -19.58733,-22.89463 -15.01878,-8.88881 -17.8876,-11.49102 -18.95788,-17.1961 -1.05696,-5.63404 1.34886,-43.98933 3.13595,-49.99594 1.88288,-6.32856 6.51904,-11.89381 11.97175,-14.37093 5.90397,-2.68211 30.18371,-2.64976 36.12467,0.0481 8.12496,3.6897 11.43405,11.05004 11.27865,25.08689 -0.15335,13.85168 0.11861,13.5 -10.43982,13.5 l -8.95492,0 -0.5,-9.83395 c -0.59549,-11.71202 -1.35694,-12.66605 -10.10934,-12.66605 -10.9556,0 -11.54935,1.11114 -12.4895,23.37265 -0.69316,16.41298 -0.66861,16.71376 1.55792,19.08379 1.2442,1.32439 8.77493,6.13433 16.73497,10.68876 7.96003,4.55444 15.78525,9.7756 17.38937,11.60259 2.81979,3.21156 2.91571,3.66081 2.89048,13.53701 -0.0434,16.97324 -1.78582,39.94996 -3.36923,44.42789 -2.22644,6.29644 -5.42531,10.01904 -10.99407,12.79406 -4.60217,2.29336 -6.0899,2.49149 -18.55694,2.47129 -10.98181,-0.0178 -14.32052,-0.3703 -17.59503,-1.8577 z m 78.44565,1.45061 c -0.23597,-0.23598 1.1572,-30.86978 3.09594,-68.0751 1.93874,-37.20533 3.27946,-68.04331 2.97938,-68.52885 -0.30008,-0.48554 -4.58075,-1.01425 -9.5126,-1.1749 l -8.967,-0.2921 -0.29526,-6.73117 c -0.50547,-11.52344 -2.63302,-10.76883 30.36183,-10.76883 23.12626,0 28.5947,0.2567 29.01892,1.3622 0.2875,0.74921 0.16088,4.68671 -0.28138,8.75 l -0.80411,7.3878 -9.5,0.5 c -8.552,0.4501 -9.52591,0.69958 -9.75965,2.5 -0.14281,1.1 -1.82163,31.61643 -3.73072,67.81428 -1.90908,36.19786 -3.73129,66.23536 -4.04936,66.75 -0.55961,0.90548 -17.68946,1.3732 -18.55599,0.50667 z m 51.70162,-0.3996 c -0.30645,-0.49585 1.01174,-30.77475 2.92931,-67.28645 3.76604,-71.7077 4.05107,-74.06623 9.73285,-80.53742 5.5574,-6.32953 9.09194,-7.30051 26.66622,-7.32552 17.69421,-0.0252 22.16139,1.28167 26.57286,7.77373 4.88759,7.19274 4.90547,8.48523 1.10652,79.97532 -1.93688,36.44906 -3.79387,66.71156 -4.12665,67.25 -0.33277,0.53845 -4.68806,0.97899 -9.67842,0.97899 l -9.07338,0 0.86641,-20.75 c 0.47652,-11.4125 0.87359,-24.125 0.88239,-28.25 l 0.016,-7.5 -11.76914,-0.2819 c -8.88748,-0.21288 -11.87133,0.032 -12.18648,1 -0.22954,0.70504 -1.00842,13.4319 -1.73086,28.2819 l -1.31352,27 -9.16846,0.28645 c -5.04265,0.15754 -9.41919,-0.11925 -9.72565,-0.6151 z m 47.05485,-75.42135 c 0.7819,-1.25499 3.16877,-38.36933 3.27987,-51 0.0827,-9.40013 -1.36214,-10.75 -11.50636,-10.75 -9.14086,0 -11.07988,0.90795 -12.31594,5.76701 -1.17637,4.62438 -3.62441,53.47177 -2.78891,55.64904 0.5035,1.3121 2.49099,1.58395 11.58019,1.58395 7.69587,0 11.20492,-0.37327 11.75115,-1.25 z m 35.97489,75.46948 c -0.57087,-0.9237 7.14665,-152.1138 7.86286,-154.03713 0.39107,-1.0502 5.10942,-1.25317 23.24608,-1 21.32665,0.29771 23.01864,0.45834 26.9475,2.55842 6.28821,3.36121 10.21831,9.44027 11.72349,18.13382 0.8112,4.6853 -5.20096,115.61468 -6.5345,120.5671 -1.41148,5.24187 -8.11873,11.97579 -13.38437,13.43761 -4.56088,1.26617 -49.10095,1.57005 -49.86106,0.34018 z m 43.43286,-20.21948 c 1.56039,-2.19354 2.11572,-9.15347 4.53014,-56.77687 l 2.75173,-54.27688 -2.02967,-2.72312 c -1.9219,-2.57852 -2.52386,-2.73851 -11.33554,-3.01278 -5.11823,-0.1593 -9.73029,0.13478 -10.24904,0.65353 -1.11716,1.11716 -7.33154,115.14209 -6.40663,117.55238 0.54332,1.41587 2.09845,1.61303 10.79768,1.36892 9.54353,-0.2678 10.27133,-0.43755 11.94133,-2.78518 z m 39.56714,20.21948 c -0.56495,-0.91412 7.14273,-152.10286 7.85137,-154.00723 0.35453,-0.95275 2.88992,-1.21289 9.74609,-1 l 9.2669,0.28775 -0.2512,5.5 c -1.84942,40.49335 -7.45439,147.80545 -7.76929,148.75 -0.46776,1.40302 -17.99699,1.83975 -18.84387,0.46948 z m 53.39411,-0.80295 c -4.96029,-2.15149 -6.99575,-4.24063 -9.66172,-9.91653 -2.0058,-4.2704 -2.34992,-6.56743 -2.35826,-15.74173 -0.011,-12.05065 5.74429,-125.55997 6.46505,-127.50827 0.51135,-1.38226 18.07672,-1.8489 18.82096,-0.5 0.2276,0.4125 -1.116,30.20319 -2.98577,66.20153 -4.03003,77.58963 -4.96329,70.3706 9.15779,70.83906 9.99419,0.33155 12.95082,-0.86711 14.00769,-5.67895 0.35709,-1.62587 2.11824,-31.48293 3.91364,-66.34903 1.79539,-34.8661 3.59388,-63.92609 3.99663,-64.57776 1.16743,-1.88895 17.51758,-1.60033 18.25535,0.32225 0.78629,2.04908 -5.41097,123.36752 -6.71132,131.38156 -1.88616,11.62433 -7.2791,19.11062 -15.82901,21.97324 -5.23834,1.75386 -32.76305,1.42318 -37.07103,-0.44537 z m 73.60589,0.80295 c -0.55747,-0.90202 7.13779,-152.08897 7.83689,-153.96948 0.32925,-0.88564 3.37846,-1.25 10.46091,-1.25 8.51328,0 10.12869,0.25961 10.88932,1.75 0.49121,0.9625 3.75175,20.5375 7.24563,43.5 5.64198,37.08017 6.55268,41.75 8.14206,41.75 0.98425,0 1.78955,-0.24374 1.78955,-0.54164 0,-1.36536 21.0921,-82.21795 21.96753,-84.20836 0.93175,-2.1185 1.57715,-2.25 11.04242,-2.25 7.12522,0 10.18954,0.36403 10.52228,1.25 0.63226,1.68345 -7.24395,152.47453 -8.03062,153.74739 -0.3408,0.55144 -4.64309,1.00261 -9.56063,1.00261 l -8.94098,0 0.013,-4.25 c 0.007,-2.3375 1.35131,-22.25 2.98704,-44.25 3.46581,-46.61399 3.38801,-44.5 1.63765,-44.5 -0.91476,0 -2.62329,4.84604 -5.20031,14.75 -2.11088,8.1125 -5.88905,22.625 -8.39592,32.25 l -4.55796,17.5 -7.45982,0 -7.45981,0 -5.2043,-32.5 c -2.86237,-17.875 -5.23923,-32.6125 -5.28192,-32.75 -0.0427,-0.1375 -0.67121,-0.25 -1.39673,-0.25 -1.05471,0 -1.57565,9.27091 -2.59884,46.25 -0.70385,25.4375 -1.48681,46.5875 -1.73991,47 -0.61225,0.99785 -18.08855,0.96934 -18.7065,-0.0305 z"
         id="path3355"
         inkscape:connector-curvature="0"
         sodipodi:nodetypes="csscssssssssssscsssssssssscccssscsssscssscccssssscscsscssscscssssssssssssssssscssssssssscssssssscssssssssscsssssssssssccsssscccscssscc" />
      <path
         style="fill:#f89b1e"
         d="m 28.965489,439.6303 c -5.455034,-6.35293 -10.043717,-12.09896 -10.197073,-12.76895 -0.153356,-0.67 2.546644,-3.06767 6,-5.32818 14.774516,-9.67112 33.362302,-17.14713 48.490419,-19.50284 4.51637,-0.70328 20.069022,-1.8158 25.314619,-1.78481 10.306356,0.40062 12.559006,0.721 19.262206,1.78481 15.17143,2.36246 33.86663,9.89352 48.46744,19.52434 3.44072,2.26953 6.14072,4.66606 6,5.32563 -0.39714,1.86138 -19.95539,24.30162 -21.1741,24.2942 -0.59496,-0.004 -2.43176,-0.92744 -4.08176,-2.05291 -10.58412,-7.21953 -27.07229,-13.19767 -41.50515,-15.04861 -19.563185,-2.50888 -44.813705,3.67026 -61.494845,15.04861 -1.65,1.12547 -3.48679,2.04929 -4.081756,2.05291 -0.594966,0.004 -5.544966,-5.19127 -11,-11.5442 z"
         id="path3351"
         inkscape:connector-curvature="0"
         sodipodi:nodetypes="ssssccsscssscs" />
      <path
         style="fill:#4b4d4f"
         d="m 83.547245,653.22047 c -22.92982,-3.34731 -42.525303,-10.64162 -60,-22.33465 C 13.915428,624.44078 -2.714814,607.80929 -9.162978,598.17315 -38.75764,553.94685 -38.810463,498.18733 -9.299127,454.45342 -4.3669,447.14418 7.07796,434.18109 8.598922,434.18109 c 1.149008,0 21.373638,23.7735 21.780986,25.60295 0.182964,0.82172 -1.40755,3.38471 -3.534477,5.69554 -8.752395,9.50917 -16.714632,24.39605 -20.432047,38.20151 -3.079995,11.43826 -3.082088,33.57605 -0.0042,44.93306 2.810482,10.37065 7.985219,21.56694 9.967829,21.56694 1.556867,0 6.076434,-4.17572 34.670232,-32.03254 l 16,-15.58762 10.89548,-23.68992 c 5.99252,-13.02946 11.05502,-23.68992 11.25,-23.68992 0.19499,0 0.33337,16.9875 0.30752,37.75 l -0.047,37.75 -24.453,23.41451 c -13.449149,12.87798 -24.453,23.77295 -24.453,24.21105 0,3.22418 19.98856,13.6992 32.5,17.03165 11.48526,3.05913 33.614695,3.04482 45.000005,-0.0291 12.68013,-3.42351 32.49999,-13.56403 32.49999,-16.62812 0,-0.71032 -11.025,-12.03122 -24.49999,-25.15755 l -24.5,-23.86604 0,-36.7382 c 0,-20.20601 0.38023,-36.7382 0.84496,-36.7382 0.46475,0 5.74065,10.5908 11.72425,23.5351 l 10.87925,23.53511 24.39559,23.50829 c 13.41757,12.92956 24.90416,23.36015 25.52576,23.1791 1.87815,-0.54705 7.48302,-12.74241 9.76979,-21.2576 3.07503,-11.4504 3.07221,-33.56931 -0.006,-45 -3.7425,-13.89861 -13.71638,-32.16587 -21.52559,-39.42431 -1.43455,-1.33338 -2.60628,-3.13338 -2.60385,-4 0.005,-1.64364 20.59653,-26.07569 21.9772,-26.07569 1.49334,0 12.98409,13.03914 17.865,20.27233 22.00742,32.61356 27.89123,73.37806 15.97154,110.65442 -10.57719,33.07794 -35.44533,61.30993 -66.92895,75.98226 -20.55468,9.57911 -48.33304,14.69319 -65.888955,12.13037 z"
         id="path3349"
         inkscape:connector-curvature="0" />
    </g>
    <g
       transform="translate(22.857143,71.428576)"
       id="g3363">
      <path
         sodipodi:nodetypes="csscssssssssssscsssssssssscccssscsssscssscccssssscscsscssscscssssssssssssssssscssssssssscssssssscssssssssscsssssssssssccsssscccscssscc"
         inkscape:connector-curvature="0"
         id="path3365"
         d="m 257.00587,602.30143 c -8.01241,-3.63954 -11.76482,-10.78042 -11.88662,-22.62034 -0.10983,-10.67668 -0.1564,-10.62953 10.16164,-10.28917 l 8.76635,0.28917 0.5,6.83151 c 0.62798,8.58008 1.87035,9.66849 11.03614,9.66849 8.9708,0 10.04698,-1.24196 11.05595,-12.75903 0.42117,-4.80753 0.79775,-13.32081 0.83684,-18.91839 0.0846,-12.11208 1.57538,-10.36956 -19.58733,-22.89463 -15.01878,-8.88881 -17.8876,-11.49102 -18.95788,-17.1961 -1.05696,-5.63404 1.34886,-43.98933 3.13595,-49.99594 1.88288,-6.32856 6.51904,-11.89381 11.97175,-14.37093 5.90397,-2.68211 30.18371,-2.64976 36.12467,0.0481 8.12496,3.6897 11.43405,11.05004 11.27865,25.08689 -0.15335,13.85168 0.11861,13.5 -10.43982,13.5 l -8.95492,0 -0.5,-9.83395 c -0.59549,-11.71202 -1.35694,-12.66605 -10.10934,-12.66605 -10.9556,0 -11.54935,1.11114 -12.4895,23.37265 -0.69316,16.41298 -0.66861,16.71376 1.55792,19.08379 1.2442,1.32439 8.77493,6.13433 16.73497,10.68876 7.96003,4.55444 15.78525,9.7756 17.38937,11.60259 2.81979,3.21156 2.91571,3.66081 2.89048,13.53701 -0.0434,16.97324 -1.78582,39.94996 -3.36923,44.42789 -2.22644,6.29644 -5.42531,10.01904 -10.99407,12.79406 -4.60217,2.29336 -6.0899,2.49149 -18.55694,2.47129 -10.98181,-0.0178 -14.32052,-0.3703 -17.59503,-1.8577 z m 78.44565,1.45061 c -0.23597,-0.23598 1.1572,-30.86978 3.09594,-68.0751 1.93874,-37.20533 3.27946,-68.04331 2.97938,-68.52885 -0.30008,-0.48554 -4.58075,-1.01425 -9.5126,-1.1749 l -8.967,-0.2921 -0.29526,-6.73117 c -0.50547,-11.52344 -2.63302,-10.76883 30.36183,-10.76883 23.12626,0 28.5947,0.2567 29.01892,1.3622 0.2875,0.74921 0.16088,4.68671 -0.28138,8.75 l -0.80411,7.3878 -9.5,0.5 c -8.552,0.4501 -9.52591,0.69958 -9.75965,2.5 -0.14281,1.1 -1.82163,31.61643 -3.73072,67.81428 -1.90908,36.19786 -3.73129,66.23536 -4.04936,66.75 -0.55961,0.90548 -17.68946,1.3732 -18.55599,0.50667 z m 51.70162,-0.3996 c -0.30645,-0.49585 1.01174,-30.77475 2.92931,-67.28645 3.76604,-71.7077 4.05107,-74.06623 9.73285,-80.53742 5.5574,-6.32953 9.09194,-7.30051 26.66622,-7.32552 17.69421,-0.0252 22.16139,1.28167 26.57286,7.77373 4.88759,7.19274 4.90547,8.48523 1.10652,79.97532 -1.93688,36.44906 -3.79387,66.71156 -4.12665,67.25 -0.33277,0.53845 -4.68806,0.97899 -9.67842,0.97899 l -9.07338,0 0.86641,-20.75 c 0.47652,-11.4125 0.87359,-24.125 0.88239,-28.25 l 0.016,-7.5 -11.76914,-0.2819 c -8.88748,-0.21288 -11.87133,0.032 -12.18648,1 -0.22954,0.70504 -1.00842,13.4319 -1.73086,28.2819 l -1.31352,27 -9.16846,0.28645 c -5.04265,0.15754 -9.41919,-0.11925 -9.72565,-0.6151 z m 47.05485,-75.42135 c 0.7819,-1.25499 3.16877,-38.36933 3.27987,-51 0.0827,-9.40013 -1.36214,-10.75 -11.50636,-10.75 -9.14086,0 -11.07988,0.90795 -12.31594,5.76701 -1.17637,4.62438 -3.62441,53.47177 -2.78891,55.64904 0.5035,1.3121 2.49099,1.58395 11.58019,1.58395 7.69587,0 11.20492,-0.37327 11.75115,-1.25 z m 35.97489,75.46948 c -0.57087,-0.9237 7.14665,-152.1138 7.86286,-154.03713 0.39107,-1.0502 5.10942,-1.25317 23.24608,-1 21.32665,0.29771 23.01864,0.45834 26.9475,2.55842 6.28821,3.36121 10.21831,9.44027 11.72349,18.13382 0.8112,4.6853 -5.20096,115.61468 -6.5345,120.5671 -1.41148,5.24187 -8.11873,11.97579 -13.38437,13.43761 -4.56088,1.26617 -49.10095,1.57005 -49.86106,0.34018 z m 43.43286,-20.21948 c 1.56039,-2.19354 2.11572,-9.15347 4.53014,-56.77687 l 2.75173,-54.27688 -2.02967,-2.72312 c -1.9219,-2.57852 -2.52386,-2.73851 -11.33554,-3.01278 -5.11823,-0.1593 -9.73029,0.13478 -10.24904,0.65353 -1.11716,1.11716 -7.33154,115.14209 -6.40663,117.55238 0.54332,1.41587 2.09845,1.61303 10.79768,1.36892 9.54353,-0.2678 10.27133,-0.43755 11.94133,-2.78518 z m 39.56714,20.21948 c -0.56495,-0.91412 7.14273,-152.10286 7.85137,-154.00723 0.35453,-0.95275 2.88992,-1.21289 9.74609,-1 l 9.2669,0.28775 -0.2512,5.5 c -1.84942,40.49335 -7.45439,147.80545 -7.76929,148.75 -0.46776,1.40302 -17.99699,1.83975 -18.84387,0.46948 z m 53.39411,-0.80295 c -4.96029,-2.15149 -6.99575,-4.24063 -9.66172,-9.91653 -2.0058,-4.2704 -2.34992,-6.56743 -2.35826,-15.74173 -0.011,-12.05065 5.74429,-125.55997 6.46505,-127.50827 0.51135,-1.38226 18.07672,-1.8489 18.82096,-0.5 0.2276,0.4125 -1.116,30.20319 -2.98577,66.20153 -4.03003,77.58963 -4.96329,70.3706 9.15779,70.83906 9.99419,0.33155 12.95082,-0.86711 14.00769,-5.67895 0.35709,-1.62587 2.11824,-31.48293 3.91364,-66.34903 1.79539,-34.8661 3.59388,-63.92609 3.99663,-64.57776 1.16743,-1.88895 17.51758,-1.60033 18.25535,0.32225 0.78629,2.04908 -5.41097,123.36752 -6.71132,131.38156 -1.88616,11.62433 -7.2791,19.11062 -15.82901,21.97324 -5.23834,1.75386 -32.76305,1.42318 -37.07103,-0.44537 z m 73.60589,0.80295 c -0.55747,-0.90202 7.13779,-152.08897 7.83689,-153.96948 0.32925,-0.88564 3.37846,-1.25 10.46091,-1.25 8.51328,0 10.12869,0.25961 10.88932,1.75 0.49121,0.9625 3.75175,20.5375 7.24563,43.5 5.64198,37.08017 6.55268,41.75 8.14206,41.75 0.98425,0 1.78955,-0.24374 1.78955,-0.54164 0,-1.36536 21.0921,-82.21795 21.96753,-84.20836 0.93175,-2.1185 1.57715,-2.25 11.04242,-2.25 7.12522,0 10.18954,0.36403 10.52228,1.25 0.63226,1.68345 -7.24395,152.47453 -8.03062,153.74739 -0.3408,0.55144 -4.64309,1.00261 -9.56063,1.00261 l -8.94098,0 0.013,-4.25 c 0.007,-2.3375 1.35131,-22.25 2.98704,-44.25 3.46581,-46.61399 3.38801,-44.5 1.63765,-44.5 -0.91476,0 -2.62329,4.84604 -5.20031,14.75 -2.11088,8.1125 -5.88905,22.625 -8.39592,32.25 l -4.55796,17.5 -7.45982,0 -7.45981,0 -5.2043,-32.5 c -2.86237,-17.875 -5.23923,-32.6125 -5.28192,-32.75 -0.0427,-0.1375 -0.67121,-0.25 -1.39673,-0.25 -1.05471,0 -1.57565,9.27091 -2.59884,46.25 -0.70385,25.4375 -1.48681,46.5875 -1.73991,47 -0.61225,0.99785 -18.08855,0.96934 -18.7065,-0.0305 z"
         style="fill:#f9ab44" />
      <path
         sodipodi:nodetypes="ssssccsscssscs"
         inkscape:connector-curvature="0"
         id="path3367"
         d="m 28.965489,439.6303 c -5.455034,-6.35293 -10.043717,-12.09896 -10.197073,-12.76895 -0.153356,-0.67 2.546644,-3.06767 6,-5.32818 14.774516,-9.67112 33.362302,-17.14713 48.490419,-19.50284 4.51637,-0.70328 20.069022,-1.8158 25.314619,-1.78481 10.306356,0.40062 12.559006,0.721 19.262206,1.78481 15.17143,2.36246 33.86663,9.89352 48.46744,19.52434 3.44072,2.26953 6.14072,4.66606 6,5.32563 -0.39714,1.86138 -19.95539,24.30162 -21.1741,24.2942 -0.59496,-0.004 -2.43176,-0.92744 -4.08176,-2.05291 -10.58412,-7.21953 -27.07229,-13.19767 -41.50515,-15.04861 -19.563185,-2.50888 -44.813705,3.67026 -61.494845,15.04861 -1.65,1.12547 -3.48679,2.04929 -4.081756,2.05291 -0.594966,0.004 -5.544966,-5.19127 -11,-11.5442 z"
         style="fill:#f89b1e" />
      <path
         inkscape:connector-curvature="0"
         id="path3369"
         d="m 83.547245,653.22047 c -22.92982,-3.34731 -42.525303,-10.64162 -60,-22.33465 C 13.915428,624.44078 -2.714814,607.80929 -9.162978,598.17315 -38.75764,553.94685 -38.810463,498.18733 -9.299127,454.45342 -4.3669,447.14418 7.07796,434.18109 8.598922,434.18109 c 1.149008,0 21.373638,23.7735 21.780986,25.60295 0.182964,0.82172 -1.40755,3.38471 -3.534477,5.69554 -8.752395,9.50917 -16.714632,24.39605 -20.432047,38.20151 -3.079995,11.43826 -3.082088,33.57605 -0.0042,44.93306 2.810482,10.37065 7.985219,21.56694 9.967829,21.56694 1.556867,0 6.076434,-4.17572 34.670232,-32.03254 l 16,-15.58762 10.89548,-23.68992 c 5.99252,-13.02946 11.05502,-23.68992 11.25,-23.68992 0.19499,0 0.33337,16.9875 0.30752,37.75 l -0.047,37.75 -24.453,23.41451 c -13.449149,12.87798 -24.453,23.77295 -24.453,24.21105 0,3.22418 19.98856,13.6992 32.5,17.03165 11.48526,3.05913 33.614695,3.04482 45.000005,-0.0291 12.68013,-3.42351 32.49999,-13.56403 32.49999,-16.62812 0,-0.71032 -11.025,-12.03122 -24.49999,-25.15755 l -24.5,-23.86604 0,-36.7382 c 0,-20.20601 0.38023,-36.7382 0.84496,-36.7382 0.46475,0 5.74065,10.5908 11.72425,23.5351 l 10.87925,23.53511 24.39559,23.50829 c 13.41757,12.92956 24.90416,23.36015 25.52576,23.1791 1.87815,-0.54705 7.48302,-12.74241 9.76979,-21.2576 3.07503,-11.4504 3.07221,-33.56931 -0.006,-45 -3.7425,-13.89861 -13.71638,-32.16587 -21.52559,-39.42431 -1.43455,-1.33338 -2.60628,-3.13338 -2.60385,-4 0.005,-1.64364 20.59653,-26.07569 21.9772,-26.07569 1.49334,0 12.98409,13.03914 17.865,20.27233 22.00742,32.61356 27.89123,73.37806 15.97154,110.65442 -10.57719,33.07794 -35.44533,61.30993 -66.92895,75.98226 -20.55468,9.57911 -48.33304,14.69319 -65.888955,12.13037 z"
         style="fill:#4b4d4f" />
    </g>
  </g>
</svg>
