<?xml version="1.0" encoding="UTF-8" standalone="no"?>
<!-- Created with Inkscape (http://www.inkscape.org/) -->

<svg
   xmlns:dc="http://purl.org/dc/elements/1.1/"
   xmlns:cc="http://creativecommons.org/ns#"
   xmlns:rdf="http://www.w3.org/1999/02/22-rdf-syntax-ns#"
   xmlns:svg="http://www.w3.org/2000/svg"
   xmlns="http://www.w3.org/2000/svg"
   xmlns:sodipodi="http://sodipodi.sourceforge.net/DTD/sodipodi-0.dtd"
   xmlns:inkscape="http://www.inkscape.org/namespaces/inkscape"
   width="1500.6322"
   height="1500.9678"
   viewBox="0 0 1500.6321 1500.9678"
   id="svg2"
   version="1.1"
   inkscape:version="0.91 r13725"
   sodipodi:docname="logo-beta.svg">
  <defs
     id="defs4" />
  <sodipodi:namedview
     id="base"
     pagecolor="#ffffff"
     bordercolor="#666666"
     borderopacity="1.0"
     inkscape:pageopacity="0.0"
     inkscape:pageshadow="2"
     inkscape:zoom="0.7"
     inkscape:cx="780.18581"
     inkscape:cy="126.31443"
     inkscape:document-units="px"
     inkscape:current-layer="g3376"
     showgrid="false"
     units="px"
     fit-margin-top="0"
     fit-margin-left="0"
     fit-margin-right="0"
     fit-margin-bottom="0"
     inkscape:window-width="1920"
     inkscape:window-height="1057"
     inkscape:window-x="-8"
     inkscape:window-y="-8"
     inkscape:window-maximized="1" />
  <metadata
     id="metadata7">
    <rdf:RDF>
      <cc:Work
         rdf:about="">
        <dc:format>image/svg+xml</dc:format>
        <dc:type
           rdf:resource="http://purl.org/dc/dcmitype/StillImage" />
        <dc:title></dc:title>
      </cc:Work>
    </rdf:RDF>
  </metadata>
  <g
     inkscape:label="Layer 1"
     inkscape:groupmode="layer"
     id="layer1"
     transform="translate(-25.23112,602.30281)">
    <g
       id="g3376"
       transform="translate(-365.71429,-405.71429)">
      <path
         style="fill:#f8ad49"
         d="m 470.44313,1287.7957 c -5.86966,-1.5774 -9.2467,-4.8627 -12.1587,-11.829 -2.15436,-5.1538 -2.07829,-16.3987 0.44369,-65.5806 1.67412,-32.6482 4.10059,-62.8576 5.39216,-67.1322 3.65022,-12.0815 10.55758,-15.9495 29.92831,-16.7604 20.6227,-0.8632 29.93099,2.5013 34.02461,12.2988 2.46293,5.8945 2.43561,14.6074 -0.20736,66.149 -1.67412,32.6481 -4.10059,62.8576 -5.39214,67.1322 -3.75529,12.4289 -10.47204,16.0115 -30.80956,16.4328 -9.48554,0.1968 -19.03498,-0.1239 -21.22101,-0.7106 z m 33.60178,-18.3246 c 2.8909,-3.1945 3.89927,-12.6466 6.5728,-61.6118 3.02851,-55.4663 3.01073,-58.0011 -0.43384,-61.8072 -2.71124,-2.9961 -6.12058,-3.9691 -13.90595,-3.9691 -17.11613,0 -16.71115,-1.3024 -20.3364,65.4035 -3.01435,55.4643 -2.99576,57.9606 0.45958,61.7788 4.99054,5.5146 22.72001,5.6463 27.64381,0.2058 z m 61.80347,17.2919 c -1.0717,-2.9706 -16.90725,-149.0923 -16.90725,-156.0108 0,-3.8802 1.02898,-4.5675 6.83823,-4.5675 3.76103,0 7.40011,0.9093 8.08684,2.0203 0.68675,1.1112 3.49742,27.716 6.24596,59.122 2.74852,31.4059 5.81654,57.9512 6.81784,58.9896 1.14978,1.1923 2.46649,1.1923 3.57388,0 0.96435,-1.0384 6.39363,-26.4807 12.06505,-56.5386 5.6714,-30.0577 10.79215,-56.6625 11.37944,-59.1218 0.88073,-3.6883 2.42258,-4.4715 8.80152,-4.4715 4.87488,0 7.72485,0.9184 7.70977,2.4842 -0.0134,1.3662 -7.46452,37.8082 -16.55854,80.982 l -16.53458,78.4981 -10.29213,0.6013 c -7.10015,0.4149 -10.58175,-0.2012 -11.22603,-1.9873 z m 65.9839,0.9508 c -0.48725,-0.8535 1.00779,-37.3233 3.32233,-81.0437 l 4.20826,-79.4917 24.34431,-0.5581 24.34433,-0.5579 0,8.0103 0,8.0103 -14.83478,0 c -12.12182,0 -15.16197,0.636 -16.62409,3.4778 -2.89659,5.6298 -4.38015,47.3292 -1.7765,49.9327 1.22848,1.2286 7.2714,2.2337 13.42868,2.2337 6.15731,0 11.61489,0.4198 12.12799,0.9329 0.51309,0.513 0.56431,4.0902 0.11383,7.9491 l -0.81917,7.0163 -12.74918,0 c -11.40566,0 -12.92371,0.4713 -14.4056,4.4715 -2.81005,7.5853 -4.14411,50.4407 -1.64788,52.9368 1.21567,1.2158 8.34543,2.2104 15.84389,2.2104 l 13.63352,0 -0.61676,7.4524 -0.6168,7.4524 -23.19525,0.5584 c -12.75736,0.3073 -23.59388,-0.1388 -24.08116,-0.9936 z m 69.58439,0.048 c -0.50332,-0.8796 0.97859,-37.3707 3.29311,-81.0911 l 4.20828,-79.4917 25.51266,0 25.51266,0 5.05916,5.8847 5.05917,5.8847 -0.96942,31.9597 c -1.00449,33.1164 -1.98565,37.4007 -10.71225,46.7779 l -4.70289,5.0534 5.65623,32.1602 c 3.11091,17.6882 5.18743,32.629 4.61448,33.2019 -0.57294,0.5731 -3.95161,1.0418 -7.50813,1.0418 -7.42543,0 -6.44762,2.7776 -12.9422,-36.7648 -2.33374,-14.2092 -5.17983,-26.9984 -6.32467,-28.4205 -2.70424,-3.3592 -13.4838,-2.2538 -15.52544,1.592 -0.87041,1.6395 -2.30201,16.3951 -3.18137,32.7903 l -1.59883,29.8094 -7.26772,0.6057 c -3.99725,0.3333 -7.67954,-0.1134 -8.18283,-0.9936 z m 43.47194,-83.6056 c 4.59444,-3.0678 6.30667,-10.1336 7.65956,-31.6088 1.31241,-20.8326 1.14407,-22.4542 -2.73333,-26.3317 -5.42937,-5.4294 -20.9864,-5.8593 -23.67214,-0.6542 -2.24751,4.3558 -4.98891,56.7843 -3.06953,58.7036 1.85372,1.8537 19.00434,1.7681 21.81544,-0.1089 z m 57.59813,83.2684 c -1.1177,-1.8089 -15.07069,-145.8614 -15.07069,-155.592 0,-5.111 0.64965,-5.6476 6.83823,-5.6476 3.76102,0 7.29532,0.7395 7.85398,1.6435 0.55868,0.9041 2.91503,27.0618 5.23636,58.1283 2.32136,31.0665 4.90607,57.1932 5.74383,58.0595 3.49361,3.6116 6.05732,-6.2372 14.89443,-57.2188 5.11546,-29.5114 9.76651,-55.222 10.33571,-57.1347 0.66974,-2.2507 3.02218,-3.4778 6.66769,-3.4778 6.64282,0 6.18972,-2.7348 11.02938,66.5743 1.67909,24.0462 3.52732,45.872 4.10721,48.5018 2.60138,11.7975 6.89806,-2.8316 15.70447,-53.47 5.03721,-28.9647 9.99033,-54.6753 11.00696,-57.1346 1.42226,-3.4406 3.46171,-4.4715 8.8465,-4.4715 4.30943,0 6.97236,0.9544 6.93103,2.4842 -0.037,1.3662 -7.02824,37.8082 -15.53636,80.982 l -15.46929,78.4981 -9.8016,0 -9.80158,0 -3.97458,-43.147 c -5.66301,-61.4761 -7.70856,-61.4306 -18.83847,0.4202 -7.92364,44.0331 -7.79659,43.7204 -17.76651,43.7204 -4.33098,0 -8.35248,-0.7734 -8.9367,-1.7189 z m 110.09653,-3.7463 c -0.12562,-21.3518 6.96211,-135.9695 8.74405,-141.4048 3.58669,-10.9398 10.97614,-14.9802 28.684,-15.6835 17.99803,-0.7147 27.9647,3.1756 31.0704,12.1279 1.90322,5.4857 -3.80406,145.1008 -6.08205,148.7867 -1.26558,2.0476 -14.17563,2.1733 -15.23294,0.1492 -0.42803,-0.8198 -0.16486,-13.5632 0.58453,-28.3189 0.84277,-16.5941 0.62302,-27.776 -0.57618,-29.3126 -1.15712,-1.4825 -6.61958,-2.484 -13.54917,-2.484 -14.51996,0 -15.71881,1.844 -15.74217,24.2137 -0.0104,9.089 -0.58121,21.2207 -1.27047,26.959 l -1.25318,10.4332 -7.67236,0 c -7.03719,0 -7.67501,-0.4522 -7.70446,-5.465 z m 49.47577,-76.5108 c 0.90782,-2.4593 2.221,-16.1302 2.91831,-30.3801 1.5295,-31.259 0.19813,-34.7036 -13.41445,-34.7036 -13.58111,0 -14.88384,2.7482 -16.95027,35.7585 -0.97825,15.6261 -1.31348,29.6228 -0.74521,31.1037 0.72089,1.8786 4.89016,2.693 13.78743,2.693 11.41247,0 12.9275,-0.4704 14.40419,-4.4715 z m 51.90006,76.5108 c 0,-3.0059 1.3908,-30.9683 3.1008,-62.139 1.7099,-31.1706 2.8313,-61.5763 2.4922,-67.5679 l -0.6166,-10.894 -8.9429,-0.9936 c -8.7062,-0.9674 -8.9428,-1.1777 -8.9428,-7.9492 l 0,-6.9556 28.8157,0 28.8158,0 0,6.9556 c 0,6.8265 -0.166,6.967 -8.9429,7.5777 -4.9185,0.3422 -9.5667,1.2365 -10.3293,1.9874 -0.7627,0.7507 -2.7944,29.0878 -4.5148,62.971 -1.7207,33.8834 -3.6203,66.301 -4.2215,72.0393 l -1.0933,10.4333 -7.8061,0 c -7.189,0 -7.8068,-0.432 -7.8143,-5.465 z m 68.5697,4.027 c -5.8123,-1.4287 -9.2276,-4.7258 -12.1587,-11.7379 -2.1545,-5.1539 -2.0784,-16.3987 0.4437,-65.5807 1.6741,-32.6482 4.1005,-62.8575 5.392,-67.1322 3.3374,-11.0453 10.6181,-15.7177 26.0208,-16.6985 25.1192,-1.5999 32.9654,5.1469 32.9654,28.3461 l 0,13.0161 -8.5911,0 -8.5912,0 0.1448,-10.0945 c 0.1669,-11.6132 -3.4614,-15.7404 -13.8378,-15.7404 -12.0933,0 -12.7513,2.3554 -15.8946,56.9057 -3.6432,63.2286 -3.6313,67.2913 0.2101,71.1328 3.5419,3.542 13.1756,4.1119 18.7823,1.1112 2.0672,-1.1062 4.3437,-5.1305 5.0588,-8.9428 1.2205,-6.5056 1.7749,-6.9312 9.0284,-6.9312 7.6057,0 7.7279,0.1179 7.7249,7.4524 0,11.245 -5.6791,20.9291 -13.908,23.7351 -6.9357,2.3653 -25.2485,3.0122 -32.7902,1.1585 z m 68.0156,0.055 c -0.5033,-0.8795 0.9786,-37.3706 3.2931,-81.091 l 4.2084,-79.4916 6.7113,-0.6417 c 3.6913,-0.3528 7.4742,0.1208 8.4065,1.0534 0.9352,0.9353 0.8421,15.8548 -0.2077,33.2826 -1.3626,22.6171 -1.2822,32.3353 0.2828,34.2209 2.6151,3.151 26.6602,3.6675 28.5478,0.6133 0.6867,-1.111 2.1089,-16.4447 3.1603,-34.0742 1.0515,-17.6297 2.3837,-32.8176 2.9607,-33.7511 0.5767,-0.9331 4.126,-1.6969 7.8869,-1.6969 6.8274,0 6.8383,0.019 6.8792,9.4396 0.058,13.4941 -5.9748,134.9783 -7.2046,145.0724 -1.0152,8.3325 -1.134,8.4459 -8.8564,8.4459 l -7.8274,0 0.1059,-8.4459 c 0.058,-4.6454 0.831,-20.519 1.7181,-35.2745 0.887,-14.7557 1.1768,-27.9833 0.6442,-29.3947 -0.6962,-1.8447 -4.9513,-2.4036 -15.1324,-1.9872 l -14.1637,0.5789 -1.4423,6.9555 c -0.7933,3.8256 -2.1348,20.3697 -2.981,36.7649 l -1.5385,29.8093 -7.2678,0.6058 c -3.9972,0.3332 -7.6794,-0.1134 -8.1828,-0.9937 z m 136.6271,-1.3927 c -7.3304,-3.1933 -10.8819,-10.4258 -10.8819,-22.16 l 0,-8.8493 7.9492,0 c 7.1542,0 7.9491,0.4968 7.9491,4.9682 0,11.038 15.6092,17.1811 23.53,9.2604 5.031,-5.031 7.5081,-36.8988 3.36,-43.2295 -1.5342,-2.3413 -10.0209,-8.4964 -18.8596,-13.6784 -8.8387,-5.1815 -17.0712,-11.2915 -18.2945,-13.5772 -1.491,-2.786 -1.8503,-12.5663 -1.0899,-29.6648 1.3077,-29.4051 4.0889,-36.7347 15.4268,-40.6564 15.6768,-5.4225 38.7965,-1.6769 43.4624,7.0414 1.181,2.2067 2.1472,9.8838 2.1472,17.0601 l 0,13.0481 -7.9492,0 c -7.8711,0 -7.9491,-0.073 -7.9491,-7.507 0,-10.6203 -4.5614,-16.3405 -13.03,-16.3405 -11.0742,0 -13.9701,4.6662 -15.3908,24.7987 -0.7269,10.2985 -0.4245,18.9975 0.7358,21.1652 1.0834,2.0242 8.9554,7.7099 17.4933,12.6343 23.5816,13.602 22.8611,12.1516 21.6613,43.5935 -1.176,30.8159 -3.9084,38.2473 -15.5424,42.2715 -9.1428,3.1625 -27.2741,3.0697 -34.7277,-0.1789 z m 84.4999,-2.6908 c 0,-3.0058 1.3909,-30.9684 3.1007,-62.139 1.7102,-31.1708 2.8315,-61.5764 2.4926,-67.5679 l -0.6168,-10.8939 -8.9428,-0.9936 c -8.7063,-0.9675 -8.9427,-1.1777 -8.9427,-7.9492 l 0,-6.9555 28.8157,0 28.8156,0 0,6.9555 c 0,6.8265 -0.1648,6.9671 -8.9427,7.5777 -4.9185,0.3422 -9.5669,1.2365 -10.3295,1.9874 -0.7625,0.7507 -2.7944,29.0876 -4.5148,62.971 -1.7205,33.8832 -3.6203,66.301 -4.2214,72.0393 l -1.0932,10.4333 -7.8063,0 c -7.189,0 -7.8068,-0.432 -7.8144,-5.4651 z m 53.633,0 c -0.1253,-21.352 6.9622,-135.9695 8.7441,-141.4047 3.5867,-10.9399 10.9762,-14.9802 28.6839,-15.6834 17.9982,-0.715 27.9649,3.1755 31.0706,12.1278 1.9031,5.4857 -3.8041,145.1007 -6.0822,148.7867 -1.2656,2.0477 -14.1755,2.1733 -15.233,0.1492 -0.428,-0.8198 -0.1648,-13.5633 0.5846,-28.3189 0.8428,-16.5943 0.623,-27.7763 -0.5762,-29.3126 -1.157,-1.4825 -6.6196,-2.484 -13.5492,-2.484 -14.5199,0 -15.7188,1.844 -15.7421,24.2136 0,9.0891 -0.5812,21.2207 -1.2705,26.959 l -1.2531,10.4333 -7.6724,0 c -7.0371,0 -7.6751,-0.4525 -7.7045,-5.465 z m 49.4758,-76.5107 c 0.9078,-2.4593 2.221,-16.1305 2.9181,-30.3802 1.5297,-31.259 0.1987,-34.7035 -13.4144,-34.7035 -13.5811,0 -14.8837,2.7482 -16.9502,35.7584 -0.978,15.6262 -1.3134,29.6228 -0.745,31.1038 0.7207,1.8785 4.89,2.6929 13.7873,2.6929 11.4123,0 12.9275,-0.4704 14.4042,-4.4714 z m 39.3712,80.4853 c -0.4663,-0.8197 1.0459,-37.2617 3.3605,-80.9821 l 4.2083,-79.4916 19.873,-0.5759 c 28.4445,-0.8241 36.5615,2.743 41.6144,18.2877 0.6797,2.0906 -0.2107,31.1549 -1.9783,64.5871 -3.6141,68.35 -4.6086,72.9174 -16.7823,77.0688 -7.6149,2.5968 -48.9308,3.5052 -50.2956,1.106 z m 43.4247,-17.205 c 3.504,-2.5622 4.0677,-7.7333 6.7088,-61.5407 2.7722,-56.4785 2.7424,-58.8994 -0.7725,-62.7835 -2.7216,-3.0074 -6.1279,-4.0398 -13.3272,-4.0398 -8.1669,0 -9.9531,0.6955 -11.4853,4.4714 -2.8864,7.1131 -8.0543,121.2573 -5.6237,124.2056 2.7776,3.369 19.7613,3.1521 24.4999,-0.313 z m 44.0161,17.205 c -0.4662,-0.8197 1.0459,-37.2617 3.3605,-80.9821 l 4.2084,-79.4916 6.7111,-0.6417 c 3.6915,-0.3528 7.4414,0.094 8.3331,0.9936 1.5186,1.5319 -5.293,153.7355 -7.1218,159.1282 -0.8989,2.6508 -14.0682,3.4956 -15.4913,0.9936 z m 57.0013,0.1208 c -2.3235,-0.4559 -6.3073,-3.0459 -8.8528,-5.7555 -6.3434,-6.7523 -6.5923,-16.507 -2.3517,-92.239 l 3.5051,-62.5997 6.7115,-0.6416 c 3.6912,-0.3528 7.452,0.1 8.3573,1.0045 0.9053,0.9053 0.3685,24.8925 -1.1929,53.3049 -1.5614,28.4123 -2.8628,59.8993 -2.8924,69.9713 -0.06,20.7712 1.089,22.4268 15.5722,22.4268 8.5509,0 13.5892,-3.5237 15.1166,-10.5722 0.5164,-2.3828 2.3454,-32.9495 4.0647,-67.9258 1.7191,-34.9763 3.5057,-64.7111 3.97,-66.0774 0.9009,-2.6511 14.0674,-3.4952 15.4974,-0.9937 0.4686,0.8198 -0.8026,32.6844 -2.8248,70.8099 -4.0909,77.13 -4.8272,80.7632 -17.6654,87.1768 -6.6004,3.2971 -25.4807,4.3738 -37.0148,2.1107 z m 76.2145,-0.019 c -0.5033,-0.8792 0.9786,-37.3703 3.2933,-81.0907 l 4.2082,-79.4916 9.8369,0 9.8367,0 7.0553,45.5507 c 6.5877,42.5324 9.1113,51.1905 13.0594,44.8023 0.7703,-1.2462 6.5235,-22.0856 12.7849,-46.3095 l 11.3846,-44.0435 9.7542,0 9.7542,0 -0.4535,7.9492 c -0.2493,4.372 -1.8694,38.8019 -3.6003,76.5106 -1.7307,37.709 -3.5559,70.5737 -4.0559,73.0331 -0.7294,3.5887 -2.251,4.4714 -7.7091,4.4714 -3.7402,0 -7.3108,-0.826 -7.9347,-1.8354 -0.6238,-1.0093 0.2177,-19.1184 1.8697,-40.2426 5.5909,-71.4849 3.0264,-77.0764 -10.9065,-23.7817 -7.9909,30.5666 -9.4342,34.3323 -13.5596,35.3808 -2.5393,0.6452 -5.5399,0.2505 -6.6676,-0.8772 -1.1277,-1.1281 -4.4775,-16.8783 -7.4436,-35.0009 -2.966,-18.1224 -6.0169,-33.5741 -6.7799,-34.3367 -3.7645,-3.7647 -5.0574,6.2281 -6.5993,51.0113 l -1.6768,48.6886 -7.2676,0.6059 c -3.9973,0.3331 -7.6796,-0.1134 -8.183,-0.9938 z"
         id="path3384"
         inkscape:connector-curvature="0"
         sodipodi:nodetypes="ssssscsscssscsssscsscsssssscsccccscccccsccssccsscscccsccscccccsccscsssssccccsssccccsssscsssssssscscccssscccsssscscscscsccsssscsscsscsscccssssscsccssscsccccssccsscccccscccsscscssssccscccssccccscssscccsssscssssscsccccsscsscccssssscsccsssccscscscsccsssscsscscscssccssssccssccccsscscccscscsccscscscccscscccsscssssccscscccc" />
      <path
         style="fill:#f89b1d"
         d="M 826.46379,9.4112522 C 797.33647,-24.425794 773.50501,-52.675883 773.50501,-53.366694 c 0,-2.310572 8.73365,-8.848425 38.32344,-28.688246 78.11185,-52.37359 167.80433,-85.27214 262.76475,-96.38025 29.4702,-3.44731 97.9929,-4.00662 125.1857,-1.02179 108.8424,11.94711 206.7474,49.6349 293.5568,113.002466 8.4349,6.157074 15.3656,11.898533 15.4015,12.758825 0.095,2.287761 -105.5795,124.628838 -107.6514,124.628838 -0.9646,0 -6.4105,-3.40545 -12.1021,-7.567654 -59.8152,-43.741919 -137.8818,-71.9444457 -216.681,-78.278773 -93.8607,-7.545023 -199.36992,21.1070445 -273.64933,74.312023 -8.85674,6.34392 -16.80686,11.534404 -17.66698,11.534404 -0.86009,0 -25.39527,-27.68485 -54.5226,-61.5218968 z"
         id="path3380"
         inkscape:connector-curvature="0"
         sodipodi:nodetypes="sssssscssssss" />
      <path
         style="fill:#494b4d"
         d="m 1099.4208,1003.7845 c -3.8256,-0.4532 -15.8984,-1.7638 -26.8285,-2.9126 C 978.35571,990.96833 875.38074,951.40914 795.94721,894.59459 581.62748,741.30389 493.35823,464.3078 579.78725,216.2668 607.67641,136.22819 647.19005,70.377236 706.34561,5.3525414 c 22.88741,-25.1582064 29.81954,-30.3766344 34.14648,-25.7051534 17.74143,19.1539926 104.5554,121.910652 104.5554,123.756122 0,1.36033 -4.10123,6.46023 -9.11383,11.33308 -26.83186,26.08383 -57.62293,69.93459 -77.21291,109.96193 -19.11968,39.06632 -30.24344,73.87872 -38.20752,119.57249 -4.95653,28.43788 -5.00897,103.07836 -0.0929,132.24442 4.33691,25.72999 12.90743,58.70671 21.14736,81.36829 8.56429,23.55368 26.32502,58.44236 30.10507,59.13751 1.89045,0.34766 48.85308,-43.5817 118.24382,-110.60661 l 115.10797,-111.18333 53.4119,-115.41232 c 29.3764,-63.47675 54.6114,-116.99323 56.0777,-118.92547 2.236,-2.94664 2.6761,25.8557 2.7291,178.6006 0.06,170.67284 -0.1552,182.36054 -3.4145,186.04168 -1.9128,2.16035 -54.187,52.82036 -116.16521,112.5778 -72.43897,69.84356 -112.30734,109.64006 -111.62354,111.42207 2.36503,6.16319 54.01604,37.44314 82.74161,50.10854 59.48464,26.22768 121.16624,38.08644 186.17204,35.79329 63.6814,-2.24642 119.2543,-16.22125 175.9865,-44.25517 31.9784,-15.80194 65.5807,-38.11167 65.5807,-43.54135 0,-2.45788 -40.8191,-43.37342 -113.7725,-114.04135 l -113.7723,-110.20825 0,-182.5087 c 0,-100.3798 0.3241,-182.50871 0.72,-182.50871 0.396,0 25.5153,53.43328 55.8205,118.74063 l 55.1007,118.74064 113.2289,109.30101 c 62.2763,60.11555 114.9202,109.58162 116.9865,109.92461 3.011,0.49969 5.6915,-3.44903 13.4912,-19.87291 41.3517,-87.07599 52.5175,-179.22449 32.9875,-272.23491 -15.7062,-74.79847 -54.1447,-148.85577 -104.6254,-201.57551 -8.4841,-8.8604 -15.4255,-17.07335 -15.4255,-18.25095 0,-2.26134 101.5557,-121.317978 106.1814,-124.479458 3.5767,-2.444604 11.3704,4.126145 33.6597,28.3776915 146.787,159.7103765 195.7598,384.0236065 128.4906,588.5331765 -30.1105,91.54129 -74.5757,163.84266 -143.1056,232.69394 -36.5539,36.72509 -54.9134,52.03487 -91.4422,76.25116 -77.9866,51.7006 -160.3324,82.84738 -252.3861,95.46367 -21.6797,2.97126 -104.0661,5.59526 -119.2374,3.79776 z"
         id="path3378"
         inkscape:connector-curvature="0"
         sodipodi:nodetypes="cssssssssssssscssssssssssscssscssssssssssssc" />
    </g>
  </g>
</svg>
